General
Complete name                    : Soylent Green.mkv
Format                           : Matroska
File size                        : 1.79 GiB
Duration                         : 1h 32mn
Overall bit rate                 : 2 755 Kbps


Video
ID                               : 1
Format                           : AVC
Duration                         : 1h 32mn
Bit rate                         : 2 059 Kbps
Width                            : 718 pixels
Height                           : 428 pixels
Display aspect ratio             : 2.35:1
Frame rate                       : 25.000 fps
Resolution                       : 8 bits
Colorimetry                      : 4:2:0
Scan type                        : Progressive
Bits/(Pixel*Frame)               : 0.268
Stream size                      : 1.34 GiB (75%)
Writing library                  : x264 core 79


Audio #1
ID                               : 2
Format                           : MPEG Audio
Format version                   : Version 1
Format profile                   : Layer 3
Mode                             : Joint stereo / MS Stereo
Codec ID                         : A_MPEG/L3
Codec ID/Hint                    : MP3
Duration                         : 1h 32mn
Bit rate mode                    : Constant
Bit rate                         : 128 Kbps
Channel(s)                       : 2 channels
Sampling rate                    : 48.0 KHz
Stream size                      : 85.0 MiB (5%)
Writing library                  : LAME3.98
Language                         : English

Audio #2
ID                               : 3
Format                           : MPEG Audio
Format version                   : Version 1
Format profile                   : Layer 3
Mode                             : Joint stereo / MS Stereo
Codec ID                         : A_MPEG/L3
Codec ID/Hint                    : MP3
Duration                         : 1h 32mn
Bit rate mode                    : Constant
Bit rate                         : 128 Kbps
Channel(s)                       : 2 channels
Sampling rate                    : 48.0 KHz
Stream size                      : 85.0 MiB (5%)
Writing library                  : LAME3.98
Language                         : Spanish

Audio #3
ID                               : 4
Format                           : MPEG Audio
Format version                   : Version 1
Format profile                   : Layer 3
Mode                             : Joint stereo / MS Stereo
Codec ID                         : A_MPEG/L3
Codec ID/Hint                    : MP3
Duration                         : 1h 32mn
Bit rate mode                    : Constant
Bit rate                         : 128 Kbps
Channel(s)                       : 2 channels
Sampling rate                    : 48.0 KHz
Stream size                      : 85.0 MiB (5%)
Writing library                  : LAME3.98
Language                         : French

Audio #4
ID                               : 5
Format                           : MPEG Audio
Format version                   : Version 1
Format profile                   : Layer 3
Mode                             : Joint stereo / MS Stereo
Codec ID                         : A_MPEG/L3
Codec ID/Hint                    : MP3
Duration                         : 1h 32mn
Bit rate mode                    : Constant
Bit rate                         : 128 Kbps
Channel(s)                       : 2 channels
Sampling rate                    : 48.0 KHz
Stream size                      : 85.0 MiB (5%)
Writing library                  : LAME3.98
Language                         : German

Audio #5
ID                               : *Director's Commentary* 
Format                           : MPEG Audio
Format version                   : Version 1
Format profile                   : Layer 3
Mode                             : Joint stereo / MS Stereo
Codec ID                         : A_MPEG/L3
Codec ID/Hint                    : MP3
Duration                         : 1h 32mn
Bit rate mode                    : Constant
Bit rate                         : 128 Kbps
Channel(s)                       : 2 channels
Sampling rate                    : 48.0 KHz
Stream size                      : 85.0 MiB (5%)
Writing library                  : LAME3.98
Language                         : English

Text #1
Language                         : English

Text #2
Language                         : Spanish

Text #3
Language                         : French

Text #4
Language                         : German

Text #5
Language                         : Italian

Text #6
Language                         : Dutch

Text #7
Language                         : Portuguese

Text #8
Language                         : Icelandic

Text #9
Language                         : Norwegian

Text #10
Language                         : Swedish

Text #11
Language                         : Croatian

Text #12
Language                         : Slovenian

Text #13
Language                         : Greek

Text #14
Language                         : Hungarian

Text #15
Language                         : Polish

Text #16
Language                         : Turkish

Text #17
Language                         : Arabic

Text #18
Language                         : English

Text #19
Language                         : German



